<?xml version="1.0" standalone="no"?>
<!DOCTYPE svg PUBLIC "-//W3C//DTD SVG 20010904//EN"
 "http://www.w3.org/TR/2001/REC-SVG-20010904/DTD/svg10.dtd">
<svg version="1.0" xmlns="http://www.w3.org/2000/svg"
 width="508.000000pt" height="496.000000pt" viewBox="0 0 508.000000 496.000000"
 preserveAspectRatio="xMidYMid meet">

<g transform="translate(0.000000,496.000000) scale(0.100000,-0.100000)"
fill="#000000" stroke="none">
<path d="M0 2480 l0 -2480 2540 0 2540 0 0 2480 0 2480 -2540 0 -2540 0 0
-2480z m1928 488 c2 -435 -1 -568 -10 -568 -6 0 -21 8 -32 19 -12 10 -88 69
-171 132 -82 62 -153 118 -157 123 -4 6 -8 203 -8 439 l0 427 188 -2 187 -3 3
-567z m630 -242 c2 -737 1 -808 -14 -802 -26 10 -282 206 -327 250 l-42 41 3
663 3 662 187 -2 187 -3 3 -809z m-1148 168 l5 -282 270 -204 c149 -112 349
-264 445 -338 96 -74 229 -175 295 -225 66 -50 153 -117 194 -148 40 -31 76
-57 80 -57 3 0 6 345 6 768 l0 767 188 3 187 2 0 -919 0 -919 90 -66 c49 -37
143 -108 208 -159 66 -51 181 -139 256 -196 l136 -104 0 -188 c0 -103 3 -195
7 -205 12 -32 107 -103 -1255 937 -301 229 -832 634 -980 746 -67 51 -124 93
-127 93 -3 0 -5 -218 -5 -484 l0 -483 -43 -39 c-24 -22 -141 -113 -261 -204
-120 -91 -340 -258 -489 -372 -150 -115 -274 -208 -277 -208 -3 0 -4 92 -2
205 l3 204 152 116 c84 63 239 180 344 260 l193 146 0 920 0 919 188 -2 187
-3 5 -281z m327 -1100 c98 -75 181 -142 185 -149 4 -7 8 -173 8 -370 1 -282
-2 -361 -12 -370 -7 -7 -78 -61 -158 -122 -80 -60 -289 -219 -465 -354 -176
-134 -337 -257 -358 -272 l-37 -28 0 205 c0 152 3 208 13 216 6 6 64 50 128
98 64 48 205 154 313 235 l196 148 0 450 c0 247 2 449 4 449 3 0 85 -61 183
-136z m499 -377 c21 -19 98 -78 169 -132 72 -54 136 -105 143 -114 7 -8 12
-42 12 -77 l0 -62 48 -36 c144 -108 208 -157 415 -314 l227 -174 0 -200 c0
-228 6 -217 -87 -143 -32 25 -197 151 -368 280 -414 314 -489 371 -557 428
l-58 48 0 264 c0 146 4 265 8 265 5 0 26 -15 48 -33z"/>
</g>
</svg>
