<?xml version="1.0" encoding="UTF-8"?>
<svg version="1.1" xmlns="http://www.w3.org/2000/svg" width="396" height="396">
<path d="M0 0 C130.68 0 261.36 0 396 0 C396 130.68 396 261.36 396 396 C265.32 396 134.64 396 0 396 C0 265.32 0 134.64 0 0 Z " fill="#060506" transform="translate(0,0)"/>
<path d="M0 0 C12.54 0 25.08 0 38 0 C38 18.81 38 37.62 38 57 C39.32 57.66 40.64 58.32 42 59 C43.28927468 59.869868 44.5580076 60.77068619 45.80859375 61.6953125 C46.54513184 62.23833008 47.28166992 62.78134766 48.04052734 63.34082031 C49.22702881 64.22398926 49.22702881 64.22398926 50.4375 65.125 C51.26717285 65.73956055 52.0968457 66.35412109 52.95166016 66.98730469 C62.70457171 74.2323247 72.35977922 81.60604425 82 89 C82.65258789 89.50047852 83.30517578 90.00095703 83.97753906 90.51660156 C88.19216194 93.75097205 92.40059389 96.99334384 96.60595703 100.23974609 C103.2738947 105.38640613 109.97154366 110.48860105 116.71875 115.53125 C120.58401356 118.43019767 124.41569373 121.37280757 128.25 124.3125 C134.54603276 129.13880085 140.87436734 133.91899412 147.22998047 138.66650391 C152.70758878 142.76407867 158.1241949 146.93656353 163.5234375 151.13671875 C165.83579907 152.99305508 165.83579907 152.99305508 168 154 C168 103.18 168 52.36 168 0 C180.21 0 192.42 0 205 0 C204.97268799 5.53201172 204.94537598 11.06402344 204.91723633 16.76367188 C204.83506598 35.02827556 204.81267959 53.2925895 204.82121754 71.55736542 C204.82493174 82.63295009 204.80813265 93.70779212 204.74291992 104.78320312 C204.68612733 114.43744097 204.66794781 124.0908504 204.6959936 133.74522829 C204.70949787 138.85681429 204.70376365 143.96673544 204.65177345 149.07810974 C204.60341875 153.89207972 204.60680006 158.70327536 204.64941406 163.51727295 C204.65599314 165.28130876 204.64386486 167.04553173 204.61136436 168.8092804 C204.21328154 178.47407097 204.21328154 178.47407097 208.42169762 186.78414917 C211.1984866 188.82479495 213.93588653 190.43613002 217 192 C218.12971836 192.80600758 219.24176438 193.63842284 220.3203125 194.51171875 C222.3553423 196.09042571 224.39162735 197.66740266 226.4296875 199.2421875 C227.00428711 199.6865918 227.57888672 200.13099609 228.17089844 200.58886719 C231.52220802 203.17436764 234.88672763 205.74259332 238.25 208.3125 C238.96115967 208.85632324 239.67231934 209.40014648 240.4050293 209.96044922 C244.10482472 212.78933844 247.80680389 215.61531859 251.51171875 218.4375 C252.25325195 219.00299561 252.99478516 219.56849121 253.75878906 220.15112305 C255.15192549 221.21345982 256.5457403 222.27490794 257.94042969 223.33520508 C259.26020641 224.34211786 260.56586218 225.36778427 261.85742188 226.41064453 C264.01832785 228.09504425 264.01832785 228.09504425 266.70507812 229.44482422 C270.41937402 231.67984197 273.41285443 233.63872479 274.50961304 238.04946899 C275.25632984 244.19093194 274.90911368 250.33741348 274.625 256.5 C274.57478947 258.39050752 274.52917078 260.28114291 274.48828125 262.171875 C274.37856922 266.78442672 274.20633467 271.39080088 274 276 C270.82472743 274.83080393 268.26022497 273.6532794 265.65234375 271.49609375 C264.75394775 270.76302002 264.75394775 270.76302002 263.83740234 270.01513672 C263.21043457 269.4945166 262.5834668 268.97389648 261.9375 268.4375 C260.59622939 267.34360694 259.25376779 266.2511727 257.91015625 265.16015625 C257.24773926 264.62148926 256.58532227 264.08282227 255.90283203 263.52783203 C252.3231185 260.65358937 248.63066737 257.93620897 244.9453125 255.19921875 C241.85613488 252.89257816 238.79975914 250.54575748 235.75 248.1875 C230.97139684 244.49530203 226.15262379 240.86109333 221.3125 237.25 C214.61878432 232.25248098 208.01674687 227.14451908 201.43310547 222.00317383 C196.36530379 218.04967464 191.2555277 214.16484571 186.1015625 210.32421875 C182.319851 207.49031655 178.56485329 204.62260484 174.8125 201.75 C174.0896582 201.19675049 173.36681641 200.64350098 172.62207031 200.07348633 C169.02510514 197.31928643 165.42999482 194.56268042 161.8359375 191.8046875 C160.45328485 190.74458314 159.07047172 189.68468807 157.6875 188.625 C156.9958374 188.09495361 156.3041748 187.56490723 155.59155273 187.01879883 C150.05092818 182.78237253 144.4654018 178.60789839 138.875 174.4375 C132.24455229 169.49011244 125.73446164 164.42830553 119.3112793 159.21557617 C114.64406419 155.45280565 109.82510303 151.95447399 104.92089844 148.50878906 C100.64232944 145.49306835 96.55332348 142.30441042 92.49609375 139 C88.68874796 135.94935674 84.7669997 133.05568229 80.85546875 130.140625 C78.46480415 128.34844415 76.10031193 126.53193526 73.75 124.6875 C68.85348077 120.854276 63.86749752 117.14250883 58.88623047 113.4206543 C54.54212666 110.17053361 50.23588088 106.88086776 45.9921875 103.5 C43.40326392 101.55069284 40.7005772 99.79029604 38 98 C38.02331642 99.79951866 38.02331642 99.79951866 38.04710388 101.63539124 C38.18910069 112.94975918 38.29398466 124.263946 38.3626852 135.57900333 C38.39919292 141.39606469 38.44869975 147.21240586 38.52807617 153.02905273 C38.60422161 158.64417519 38.64600881 164.25860567 38.6641407 169.87420464 C38.67705933 172.01487559 38.70228732 174.15550932 38.7401104 176.29588509 C38.79105129 179.29842605 38.79791865 182.29812074 38.79467773 185.30102539 C38.83242813 186.62380745 38.83242813 186.62380745 38.87094116 187.97331238 C38.81361818 192.89265023 38.12030581 195.41731655 34.61488342 198.97605896 C31.82728766 201.42677094 28.92443204 203.6951044 25.875 205.8125 C21.72661718 208.75377143 17.64695394 211.76362029 13.625 214.875 C12.80104736 215.51151489 12.80104736 215.51151489 11.96044922 216.16088867 C10.84730502 217.02151856 9.73451116 217.88260178 8.62207031 218.74414062 C-7.36539327 231.12215277 -23.45103456 243.37260788 -39.65454102 255.46630859 C-46.26861215 260.41681467 -52.79332251 265.47634147 -59.26635742 270.60986328 C-59.96220947 271.15755371 -60.65806152 271.70524414 -61.375 272.26953125 C-62.28378906 272.99039917 -62.28378906 272.99039917 -63.2109375 273.72583008 C-65.0649742 275.04627461 -66.94085783 276.03704489 -69 277 C-69.27353515 271.32615407 -69.47222515 265.65619964 -69.60424805 259.97729492 C-69.65930856 258.04953123 -69.73418957 256.12222162 -69.82983398 254.19604492 C-70.60294535 238.21703194 -70.60294535 238.21703194 -66.70898438 232.83129883 C-63.9160834 230.53642108 -61.16011667 228.74382717 -58 227 C-56.90242379 226.19032229 -55.817091 225.36308062 -54.7578125 224.50390625 C-53.88898437 223.86324219 -53.02015625 223.22257813 -52.125 222.5625 C-48.07738904 219.55393093 -44.05534303 216.51842921 -40.0625 213.4375 C-34.17904948 208.90043338 -28.28051481 204.38330935 -22.375 199.875 C-21.51656494 199.21814209 -20.65812988 198.56128418 -19.77368164 197.88452148 C-18.92797607 197.23942627 -18.08227051 196.59433105 -17.2109375 195.9296875 C-16.41670285 195.30559242 -15.6224682 194.68149734 -14.80416584 194.0384903 C-12 192 -12 192 -9.13199902 190.49198151 C-5.81044624 188.61367613 -3.49857167 186.90071048 -1 184 C0.63389592 178.07727496 0.45307164 172.30611703 0.34057617 166.20117188 C0.34734155 164.38718336 0.3589429 162.57320741 0.375 160.75927734 C0.40481829 155.84987269 0.36719573 150.94304974 0.31726241 146.03389549 C0.27655826 140.8982283 0.29814531 135.76282775 0.31306458 130.6270752 C0.33186216 120.90878892 0.29481286 111.19155376 0.23759204 101.47345018 C0.17515865 90.40692608 0.17514412 79.3406756 0.18031728 68.27400875 C0.18956032 45.51545928 0.11235964 22.7582964 0 0 Z " fill="#E5E6E6" transform="translate(96,79)"/>
<path d="M0 0 C3.40271751 0.74767295 5.06478216 1.68315357 7.6171875 4.0859375 C12.22149545 8.26372318 17.12507063 11.93689618 22.125 15.625 C23.85791681 16.90730694 25.58971541 18.19112661 27.3203125 19.4765625 C28.45364014 20.3130835 28.45364014 20.3130835 29.60986328 21.16650391 C30.3986084 21.77155762 31.18735352 22.37661133 32 23 C33.01935638 23.71558578 34.03871277 24.43117157 35.08895874 25.16844177 C37.62918368 27.30774411 37.97583999 27.90491437 38.84265137 31.31639099 C38.90410339 33.20829918 38.90410339 33.20829918 38.96679688 35.13842773 C38.9965863 35.83843399 39.02637573 36.53844025 39.05706787 37.25965881 C39.14443743 39.56800289 39.18554187 41.87387056 39.21875 44.18359375 C39.23571426 44.9779439 39.25267853 45.77229404 39.27015686 46.59071541 C39.36000614 50.80205245 39.41542567 55.01216499 39.44140625 59.22436523 C39.46768123 62.68755297 39.55072079 66.14173175 39.6875 69.60229492 C40.85763709 99.77296258 40.85763709 99.77296258 34.25805664 107.18579102 C30.56994326 110.39363288 26.57501978 112.73890369 22.19683838 114.88424683 C19.24887073 116.38149136 16.79870565 118.32115047 14.24609375 120.41015625 C12.64392465 121.62851928 11.04107557 122.84598872 9.4375 124.0625 C7.66006096 125.41393719 5.88271853 126.76550144 4.10546875 128.1171875 C3.24614746 128.77041992 2.38682617 129.42365234 1.50146484 130.09667969 C-2.2538258 132.95401385 -6.00243488 135.82004487 -9.75 138.6875 C-10.43223633 139.20932861 -11.11447266 139.73115723 -11.81738281 140.26879883 C-15.34941304 142.97072638 -18.88021664 145.67424806 -22.41015625 148.37890625 C-29.6059975 153.89020869 -36.81279946 159.38255063 -44.08203125 164.796875 C-46.22259885 166.41304652 -48.34159593 168.04508941 -50.44921875 169.703125 C-51.32175293 170.38628784 -51.32175293 170.38628784 -52.21191406 171.08325195 C-53.32851397 171.95956487 -54.44141671 172.84061811 -55.54980469 173.72729492 C-58.59073567 176.10922897 -61.40062093 177.6478162 -65 179 C-67.84191074 143.6072808 -67.84191074 143.6072808 -63.45898438 134.95947266 C-59.54212667 130.61547987 -54.66986781 128.30044538 -49.33740234 126.06591797 C-45.82530835 124.4643092 -43.10836012 122.17300759 -40.1875 119.6875 C-39.07392783 118.79494976 -37.95658725 117.90708508 -36.8359375 117.0234375 C-35.94213379 116.31525879 -35.94213379 116.31525879 -35.03027344 115.59277344 C-30.82253574 112.29175363 -26.56568048 109.05460786 -22.3125 105.8125 C-21.45744873 105.15918701 -20.60239746 104.50587402 -19.72143555 103.83276367 C-18.46133667 102.87333862 -18.46133667 102.87333862 -17.17578125 101.89453125 C-16.38771591 101.27309235 -15.59965057 100.65165344 -14.78770447 100.01138306 C-12 98 -12 98 -9.13375854 96.58927917 C-5.23231947 94.48234478 -1.78583945 92.46634305 -0.37315178 88.03264809 C0.65758199 81.91369947 0.40854637 75.71252856 0.29296875 69.53125 C0.29489204 67.52485139 0.30166298 65.51845209 0.31306458 63.51208496 C0.3300163 58.25041659 0.28141316 52.99134643 0.21887207 47.73010254 C0.16665657 42.35393804 0.17681986 36.97792488 0.18164062 31.6015625 C0.18193955 21.06692878 0.11294334 10.53398594 0 0 Z " fill="#E3E4E5" transform="translate(148,204)"/>
<path d="M0 0 C12.54 0 25.08 0 38 0 C38 53.46 38 106.92 38 162 C33.52429233 160.88107308 30.97504927 158.84677562 27.5 156 C26.24837181 154.9935767 24.99575038 153.9883875 23.7421875 152.984375 C23.11538086 152.48099609 22.48857422 151.97761719 21.84277344 151.45898438 C18.2717434 148.63168237 14.58911024 145.95571758 10.9140625 143.265625 C9.47160156 142.14414062 9.47160156 142.14414062 8 141 C7.33912636 140.57360198 6.67825272 140.14720396 5.9973526 139.70788479 C2.59826831 137.25628048 0.3571534 135.36541042 -0.72654724 131.2223835 C-0.98533799 127.75923359 -0.98953675 124.37659827 -0.90820312 120.90454102 C-0.90937134 119.59654037 -0.91053955 118.28853973 -0.91174316 116.94090271 C-0.91403025 113.37029301 -0.86714126 109.80185155 -0.8111515 106.23174405 C-0.76099696 102.49493612 -0.75643051 98.75807342 -0.74694824 95.02098083 C-0.72212475 87.95170957 -0.65653413 80.88343303 -0.57615232 73.81459898 C-0.48660153 65.76394479 -0.44271449 57.71324203 -0.40258884 49.66221344 C-0.31906212 33.10746887 -0.17240739 16.55409378 0 0 Z " fill="#E9E9EB" transform="translate(211,43)"/>
<path d="M0 0 C3.35539948 0.74102734 4.99071633 1.62278389 7.5 4 C11.71419245 7.82471071 16.18003334 11.19535953 20.75 14.58203125 C24.2590839 17.18259005 27.72612588 19.83640757 31.1875 22.5 C31.75235107 22.93352783 32.31720215 23.36705566 32.89916992 23.8137207 C36.87470375 26.87470375 36.87470375 26.87470375 38 28 C38.07271741 30.35313555 38.08370868 32.70833668 38.0625 35.0625 C38.05347656 36.35285156 38.04445312 37.64320313 38.03515625 38.97265625 C38.02355469 39.97167969 38.01195312 40.97070312 38 42 C38.58177002 42.27239502 39.16354004 42.54479004 39.76293945 42.82543945 C41.97342822 43.98604858 43.81925685 45.26872841 45.79296875 46.79296875 C46.50074463 47.33703369 47.20852051 47.88109863 47.93774414 48.44165039 C48.68016357 49.01778076 49.42258301 49.59391113 50.1875 50.1875 C50.95634521 50.77974365 51.72519043 51.3719873 52.51733398 51.98217773 C56.20952385 54.82891757 59.89008318 57.69029851 63.5625 60.5625 C67.60577028 63.72032543 71.70728541 66.79847248 75.8125 69.875 C76.50633789 70.39497559 77.20017578 70.91495117 77.91503906 71.45068359 C81.04283708 73.79250333 84.17329659 76.1305199 87.3125 78.45703125 C88.3025 79.19308594 89.2925 79.92914063 90.3125 80.6875 C91.15425781 81.31011719 91.99601562 81.93273437 92.86328125 82.57421875 C93.89839844 83.37472656 94.93351562 84.17523438 96 85 C96.91676514 85.51119385 97.83353027 86.0223877 98.77807617 86.54907227 C102.7343475 89.0723133 106.28313847 91.36462861 107.57455444 96.11221313 C108.38217811 102.25131025 108.00151787 108.39902408 107.6875 114.5625 C107.63225557 116.44842484 107.58207725 118.33450528 107.53710938 120.22070312 C107.41654699 124.81767602 107.22718194 129.407112 107 134 C102.68665505 132.39164941 99.86201685 130.41086642 96.375 127.375 C91.73876355 123.40698571 86.99074729 119.72690959 82.0234375 116.17578125 C68.65739485 106.55706581 55.63636915 96.43930153 42.6015625 86.37890625 C38.15545586 82.94826841 33.71147167 79.52028524 29.203125 76.171875 C5.75017857 58.75017857 5.75017857 58.75017857 0 53 C-0.09346915 51.34261557 -0.11744977 49.68125356 -0.11352539 48.02124023 C-0.11344986 46.96021591 -0.11337433 45.89919159 -0.11329651 44.80601501 C-0.10813522 43.651866 -0.10297394 42.49771698 -0.09765625 41.30859375 C-0.0962413 40.13361832 -0.09482635 38.95864288 -0.09336853 37.74806213 C-0.08774992 33.97784936 -0.07519426 30.20769496 -0.0625 26.4375 C-0.0574874 23.88867273 -0.05292408 21.33984453 -0.04882812 18.79101562 C-0.03777444 12.52732367 -0.02101821 6.26366601 0 0 Z " fill="#E5E6E7" transform="translate(211,252)"/>
<path d="M0 0 C12.54 0 25.08 0 38 0 C38 37.62 38 75.24 38 114 C33.39480578 112.84870144 30.79932536 110.6506601 27.25 107.6875 C21.02288756 102.58632016 14.67463364 97.69507615 8.19238281 92.92260742 C7.55655273 92.45185791 6.92072266 91.9811084 6.265625 91.49609375 C5.42692871 90.88012329 5.42692871 90.88012329 4.57128906 90.25170898 C4.05276367 89.83864502 3.53423828 89.42558105 3 89 C2.47961655 88.64903259 1.95923309 88.29806519 1.42308044 87.9364624 C-0.84912103 84.84455516 -0.39074178 81.45494557 -0.34057617 77.76489258 C-0.34101425 76.92564743 -0.34145233 76.08640228 -0.34190369 75.22172546 C-0.33981247 72.44575799 -0.31646586 69.67039331 -0.29296875 66.89453125 C-0.28737398 64.97068105 -0.28310332 63.04682658 -0.28010559 61.12297058 C-0.26864747 56.0577516 -0.23917193 50.99279042 -0.20599365 45.92767334 C-0.16992015 39.85125303 -0.15613623 33.77474655 -0.13863373 27.69824982 C-0.1095352 18.46532055 -0.05205468 9.23295699 0 0 Z " fill="#E8E9EB" transform="translate(148,43)"/>
<path d="M0 0 C0.66 0.33 1.32 0.66 2 1 C2 14.53 2 28.06 2 42 C1.01 41.67 0.02 41.34 -1 41 C-0.67 27.47 -0.34 13.94 0 0 Z " fill="#3A393C" transform="translate(318,346)"/>
</svg>
